<!--?xml version="1.0" standalone="no"?-->
<svg id="sw-js-blob-svg" viewBox="0 0 100 100" xmlns="http://www.w3.org/2000/svg">
    <defs>
        <linearGradient id="sw-gradient" x1="0" x2="1" y1="1" y2="0">
            <stop id="stop1" stop-color="rgba(8.185, 12.562, 21.316, 1)" offset="0%"></stop>
            <stop id="stop2" stop-color="rgba(0, 97.565, 255, 1)" offset="100%"></stop>
        </linearGradient>
    </defs>
    <path fill="url(#sw-gradient)"
        d="M24.1,-30.4C30.5,-28.6,34.2,-20.5,34.3,-12.9C34.4,-5.3,30.8,1.8,27.6,8C24.3,14.3,21.3,19.7,16.7,22.3C12.2,24.9,6.1,24.6,-1.4,26.5C-8.8,28.3,-17.6,32.3,-21.3,29.5C-24.9,26.6,-23.4,16.9,-22.8,9.6C-22.1,2.3,-22.4,-2.6,-22.9,-9.4C-23.3,-16.2,-24,-25,-20.2,-27.6C-16.4,-30.2,-8.2,-26.6,0.4,-27.1C8.9,-27.5,17.8,-32.2,24.1,-30.4Z"
        width="100%" height="100%" transform="translate(50 50)" stroke-width="0"
        style="transition: all 0.3s ease 0s;" stroke="url(#sw-gradient)"></path>
</svg>