<svg id="sw-js-blob-svg" viewBox="0 0 100 100" xmlns="http://www.w3.org/2000/svg">
    <defs>
        <linearGradient id="sw-gradient" x1="0" x2="1" y1="1" y2="0">
            <stop id="stop1" stop-color="rgba(19, 107, 249, 1)" offset="0%"></stop>
            <stop id="stop2" stop-color="rgba(30, 75, 165, 1)" offset="100%"></stop>
        </linearGradient>
    </defs>
    <path fill="url(#sw-gradient)"
        d="M12.9,-20.2C15.8,-15.6,16.6,-10.6,17.1,-6.3C17.5,-1.9,17.6,1.9,18.8,8.6C20.1,15.3,22.5,24.8,19.6,30.9C16.7,36.9,8.3,39.4,2,36.7C-4.4,34,-8.8,26.1,-12.2,20.2C-15.7,14.4,-18.1,10.5,-21.7,5.6C-25.2,0.7,-29.9,-5.3,-31.3,-13C-32.7,-20.8,-30.8,-30.3,-25.1,-33.9C-19.3,-37.6,-9.6,-35.3,-2.3,-32.1C5,-28.9,10,-24.7,12.9,-20.2Z"
        width="100%" height="100%" transform="translate(50 50)" stroke-width="0"
        style="transition: all 0.3s ease 0s;" stroke="url(#sw-gradient)"></path>
</svg>